#!OML:ASF E:\I on waltz\AllaLogoMonkeySwing\Project 1\Capture day 1\Session 1\Subject1.ASF
:FULLY-SPECIFIED
:DEGREES
415
root 1.33817 17.7952 19.5838 0.648717 177.749 0.169041
lowerback 5.32604 -3.42193 -6.54054
upperback -1.04047 -4.88075 3.01944
thorax -3.25917 -2.26911 7.19976
lowerneck -4.08854 -12.4452 -11.7013
upperneck 12.5751 -16.7307 8.86085
head 6.22101 -8.09516 3.31614
rclavicle 1.38528e-015 -1.94809e-014
rhumerus -39.2719 -26.2304 -71.1424
rradius 23.2605
rwrist 5.13043
rhand -8.45011 -37.1931
rfingers 7.12502
rthumb 17.4757 -66.4276
lclavicle 1.38528e-015 -1.94809e-014
lhumerus -34.386 19.7908 89.7478
lradius 31.9303
lwrist -6.28485
lhand -8.62695 -17.6138
lfingers 7.12502
lthumb 17.3055 11.6358
rfemur -3.28016 3.86477 18.3827
rtibia 16.6445
rfoot -13.2017 -4.45976
rtoes 9.65995
lfemur 4.43917 1.57386 -18.6832
ltibia 7.38014
lfoot -13.3586 0.424617
ltoes -28.0947
416
root 1.34843 17.7937 19.565 0.619549 177.864 0.216235
lowerback 5.28882 -3.41774 -6.53606
upperback -1.07326 -4.87132 3.052
thorax -3.27167 -2.26235 7.22999
lowerneck -3.80112 -12.4765 -11.7648
upperneck 12.458 -16.7946 8.93883
head 6.15476 -8.13298 3.36238
rclavicle -2.85504e-014 -1.82882e-014
rhumerus -38.5045 -25.291 -72.5107
rradius 23.4443
rwrist 5.07359
rhand -8.30537 -37.0421
rfingers 7.12502
rthumb 17.615 -66.2641
lclavicle -2.85504e-014 -1.82882e-014
lhumerus -34.0009 18.4653 90.4927
lradius 32.4745
lwrist -5.78617
lhand -8.19508 -17.6131
lfingers 7.12502
lthumb 17.7211 11.5994
rfemur -3.13915 3.7955 18.4893
rtibia 16.6044
rfoot -13.2649 -4.64364
rtoes 9.23502
lfemur 4.52824 1.53037 -18.5908
ltibia 7.41204
lfoot -13.4706 0.459967
ltoes -28.32
417
root 1.35808 17.7917 19.5467 0.602109 177.957 0.270841
lowerback 5.22674 -3.3992 -6.53802
upperback -1.11332 -4.84089 3.09989
thorax -3.27953 -2.24467 7.27747
lowerneck -3.4537 -12.508 -11.8967
upperneck 12.2306 -16.866 9.09453
head 6.05751 -8.17746 3.4471
rclavicle 9.81499e-016 5.1684e-015
rhumerus -37.7691 -24.1807 -73.8424
rradius 23.7015
rwrist 4.9317
rhand -8.18829 -36.9747
rfingers 7.12502
rthumb 17.7277 -66.1866
lclavicle 9.81499e-016 5.1684e-015
lhumerus -33.7296 17.2462 91.1503
lradius 33.0646
lwrist -5.38152
lhand -7.54259 -18.2325
lfingers 7.12502
lthumb 18.3489 10.9221
rfemur -3.02323 3.67045 18.5861
rtibia 16.578
rfoot -13.3474 -4.71423
rtoes 8.8262
lfemur 4.4762 1.24058 -18.5811
ltibia 7.70673
lfoot -13.6329 0.829461
ltoes -28.6414
418
root 1.36627 17.7897 19.5298 0.569548 178.064 0.324534
lowerback 5.22099 -3.38938 -6.54716
upperback -1.16266 -4.8246 3.16881
thorax -3.32412 -2.23143 7.35725
lowerneck -3.13285 -12.5456 -12.1037
upperneck 11.9735 -16.9447 9.29559
head 5.9672 -8.22681 3.55393
rclavicle -9.69696e-015 -1.11319e-014
rhumerus -37.0532 -22.8274 -75.1702
rradius 24.0782
rwrist 4.64099
rhand -8.00735 -36.9047
rfingers 7.12502
rthumb 17.9018 -66.1007
lclavicle -9.69696e-015 -1.11319e-014
lhumerus -33.4863 16.3418 91.6613
lradius 33.5595
lwrist -5.23494
lhand -6.91619 -18.5563
lfingers 7.12502
lthumb 18.9514 10.5405
rfemur -2.89413 3.55254 18.6618
rtibia 16.5406
rfoot -13.4046 -4.68997
rtoes 9.00416
lfemur 4.475 0.926295 -18.5824
ltibia 7.9087
lfoot -13.7038 1.16996
ltoes -28.9374
419
root 1.37328 17.7889 19.5132 0.510094 178.157 0.369797
lowerback 5.23247 -3.3764 -6.53278
upperback -1.20194 -4.80447 3.2142
thorax -3.37245 -2.21716 7.39935
lowerneck -2.94457 -12.603 -12.1963
upperneck 11.9054 -17.0292 9.30519
head 5.93268 -8.27735 3.57353
rclavicle -2.82274e-014 3.18055e-015
rhumerus -36.3557 -21.2294 -76.5653
rradius 24.6011
rwrist 4.12632
rhand -7.79712 -36.8405
rfingers 7.12502
rthumb 18.104 -66.0179
lclavicle -2.82274e-014 3.18055e-015
lhumerus -33.1946 15.7308 91.9695
lradius 33.8967
lwrist -5.3818
lhand -6.40435 -18.4314
lfingers 7.12502
lthumb 19.4436 10.6165
rfemur -2.71624 3.50878 18.7311
rtibia 16.4576
rfoot -13.4096 -4.66979
rtoes 9.57263
lfemur 4.57701 1.05071 -18.4711
ltibia 7.94005
lfoot -13.7886 1.01726
ltoes -28.9202
